<mxfile host="65bd71144e">
    <diagram id="7iaetLV4vXBJX0ZhXoag" name="Page-1">
        <mxGraphModel dx="1342" dy="1749" grid="1" gridSize="10" guides="1" tooltips="1" connect="1" arrows="1" fold="1" page="0" pageScale="1" pageWidth="827" pageHeight="1169" math="0" shadow="0">
            <root>
                <mxCell id="0"/>
                <mxCell id="1" parent="0"/>
                <mxCell id="9BRF-aIqI05P_72CsstD-42" value="" style="verticalLabelPosition=bottom;verticalAlign=top;html=1;shape=mxgraph.basic.partConcEllipse;startAngle=0.25;endAngle=0.1;arcWidth=0.5;sketch=1;fontSize=12;fillColor=default;rotation=-210;" parent="1" vertex="1">
                    <mxGeometry x="1233.15" y="-349.41" width="250" height="248.48" as="geometry"/>
                </mxCell>
                <mxCell id="9BRF-aIqI05P_72CsstD-54" style="edgeStyle=orthogonalEdgeStyle;curved=1;rounded=0;orthogonalLoop=1;jettySize=auto;html=1;exitX=1;exitY=0.5;exitDx=0;exitDy=0;entryX=0;entryY=0.5;entryDx=0;entryDy=0;fontSize=12;endArrow=block;endFill=1;" parent="1" source="9BRF-aIqI05P_72CsstD-1" target="9BRF-aIqI05P_72CsstD-2" edge="1">
                    <mxGeometry relative="1" as="geometry"/>
                </mxCell>
                <mxCell id="9BRF-aIqI05P_72CsstD-1" value="Continuous exploration" style="ellipse;whiteSpace=wrap;html=1;sketch=1;" parent="1" vertex="1">
                    <mxGeometry x="2140" y="-279.40999999999997" width="120" height="80" as="geometry"/>
                </mxCell>
                <mxCell id="9BRF-aIqI05P_72CsstD-55" style="edgeStyle=orthogonalEdgeStyle;curved=1;rounded=0;orthogonalLoop=1;jettySize=auto;html=1;exitX=1;exitY=0.5;exitDx=0;exitDy=0;entryX=0;entryY=0.5;entryDx=0;entryDy=0;fontSize=12;endArrow=block;endFill=1;" parent="1" source="9BRF-aIqI05P_72CsstD-2" target="9BRF-aIqI05P_72CsstD-3" edge="1">
                    <mxGeometry relative="1" as="geometry"/>
                </mxCell>
                <mxCell id="9BRF-aIqI05P_72CsstD-2" value="Continuous integration" style="ellipse;whiteSpace=wrap;html=1;sketch=1;" parent="1" vertex="1">
                    <mxGeometry x="2330" y="-279.40999999999997" width="120" height="80" as="geometry"/>
                </mxCell>
                <mxCell id="9BRF-aIqI05P_72CsstD-52" style="edgeStyle=orthogonalEdgeStyle;curved=1;rounded=0;orthogonalLoop=1;jettySize=auto;html=1;exitX=1;exitY=0.5;exitDx=0;exitDy=0;entryX=0;entryY=0.5;entryDx=0;entryDy=0;fontSize=12;endArrow=block;endFill=1;" parent="1" source="9BRF-aIqI05P_72CsstD-3" target="9BRF-aIqI05P_72CsstD-26" edge="1">
                    <mxGeometry relative="1" as="geometry"/>
                </mxCell>
                <mxCell id="9BRF-aIqI05P_72CsstD-56" style="edgeStyle=orthogonalEdgeStyle;curved=1;rounded=0;orthogonalLoop=1;jettySize=auto;html=1;exitX=0.5;exitY=1;exitDx=0;exitDy=0;entryX=0.5;entryY=1;entryDx=0;entryDy=0;fontSize=12;endArrow=block;endFill=1;dashed=1;" parent="1" source="9BRF-aIqI05P_72CsstD-3" target="9BRF-aIqI05P_72CsstD-1" edge="1">
                    <mxGeometry relative="1" as="geometry">
                        <Array as="points">
                            <mxPoint x="2585" y="-119.41"/>
                            <mxPoint x="2200" y="-119.41"/>
                        </Array>
                    </mxGeometry>
                </mxCell>
                <mxCell id="9BRF-aIqI05P_72CsstD-3" value="Continuous deployment" style="ellipse;whiteSpace=wrap;html=1;sketch=1;" parent="1" vertex="1">
                    <mxGeometry x="2525" y="-279.40999999999997" width="120" height="80" as="geometry"/>
                </mxCell>
                <mxCell id="9BRF-aIqI05P_72CsstD-5" value="&lt;b style=&quot;font-size: 27px&quot;&gt;&lt;span style=&quot;color: rgb(0 , 0 , 0) ; font-family: &amp;#34;helvetica&amp;#34; ; font-style: normal ; letter-spacing: normal ; text-align: center ; text-indent: 0px ; text-transform: none ; word-spacing: 0px ; background-color: rgb(255 , 255 , 255) ; display: inline ; float: none&quot;&gt;Continuous&amp;nbsp;&lt;/span&gt;&lt;span style=&quot;color: rgb(0 , 0 , 0) ; font-family: &amp;#34;helvetica&amp;#34; ; font-style: normal ; letter-spacing: normal ; text-align: center ; text-indent: 0px ; text-transform: none ; word-spacing: 0px ; background-color: rgb(255 , 255 , 255) ; display: inline ; float: none&quot;&gt;Evolution&lt;/span&gt;&lt;/b&gt;" style="text;whiteSpace=wrap;html=1;" parent="1" vertex="1">
                    <mxGeometry x="2340" y="-580" width="280" height="40" as="geometry"/>
                </mxCell>
                <mxCell id="9BRF-aIqI05P_72CsstD-6" value="&lt;div&gt;&lt;span style=&quot;font-size: 27px&quot;&gt;&lt;font face=&quot;helvetica&quot;&gt;&lt;b&gt;Agile Scrum&lt;/b&gt;&lt;/font&gt;&lt;/span&gt;&lt;/div&gt;" style="text;whiteSpace=wrap;html=1;align=center;" parent="1" vertex="1">
                    <mxGeometry x="1218.15" y="-560" width="280" height="40" as="geometry"/>
                </mxCell>
                <mxCell id="9BRF-aIqI05P_72CsstD-7" value="&lt;div&gt;&lt;span style=&quot;font-size: 27px&quot;&gt;&lt;font face=&quot;helvetica&quot;&gt;&lt;b&gt;Human-Centered Design&lt;/b&gt;&lt;/font&gt;&lt;/span&gt;&lt;/div&gt;" style="text;whiteSpace=wrap;html=1;align=center;" parent="1" vertex="1">
                    <mxGeometry x="-40" y="-580" width="480" height="40" as="geometry"/>
                </mxCell>
                <mxCell id="9BRF-aIqI05P_72CsstD-15" style="edgeStyle=orthogonalEdgeStyle;rounded=0;orthogonalLoop=1;jettySize=auto;html=1;exitX=1;exitY=0.5;exitDx=0;exitDy=0;entryX=0.5;entryY=0;entryDx=0;entryDy=0;fontSize=27;curved=1;" parent="1" source="9BRF-aIqI05P_72CsstD-8" target="9BRF-aIqI05P_72CsstD-9" edge="1">
                    <mxGeometry relative="1" as="geometry"/>
                </mxCell>
                <mxCell id="9BRF-aIqI05P_72CsstD-8" value="Planning the &lt;br&gt;human-centered design process" style="rectangle;whiteSpace=wrap;html=1;sketch=1;" parent="1" vertex="1">
                    <mxGeometry x="-70" y="-450" width="200" height="80" as="geometry"/>
                </mxCell>
                <mxCell id="9BRF-aIqI05P_72CsstD-16" style="edgeStyle=orthogonalEdgeStyle;curved=1;rounded=0;orthogonalLoop=1;jettySize=auto;html=1;exitX=1;exitY=0.5;exitDx=0;exitDy=0;entryX=0.5;entryY=0;entryDx=0;entryDy=0;fontSize=27;" parent="1" source="9BRF-aIqI05P_72CsstD-9" target="9BRF-aIqI05P_72CsstD-10" edge="1">
                    <mxGeometry relative="1" as="geometry"/>
                </mxCell>
                <mxCell id="9BRF-aIqI05P_72CsstD-9" value="Understanding and setting the context of use" style="rectangle;whiteSpace=wrap;html=1;sketch=1;" parent="1" vertex="1">
                    <mxGeometry x="290" y="-340" width="160" height="80" as="geometry"/>
                </mxCell>
                <mxCell id="9BRF-aIqI05P_72CsstD-17" style="edgeStyle=orthogonalEdgeStyle;curved=1;rounded=0;orthogonalLoop=1;jettySize=auto;html=1;exitX=0.5;exitY=1;exitDx=0;exitDy=0;entryX=1;entryY=0.5;entryDx=0;entryDy=0;fontSize=27;" parent="1" source="9BRF-aIqI05P_72CsstD-10" target="9BRF-aIqI05P_72CsstD-11" edge="1">
                    <mxGeometry relative="1" as="geometry"/>
                </mxCell>
                <mxCell id="9BRF-aIqI05P_72CsstD-10" value="Determining the requirements of use" style="rectangle;whiteSpace=wrap;html=1;sketch=1;" parent="1" vertex="1">
                    <mxGeometry x="500" y="-200" width="160" height="80" as="geometry"/>
                </mxCell>
                <mxCell id="9BRF-aIqI05P_72CsstD-18" style="edgeStyle=orthogonalEdgeStyle;curved=1;rounded=0;orthogonalLoop=1;jettySize=auto;html=1;exitX=0;exitY=0.5;exitDx=0;exitDy=0;entryX=0.5;entryY=1;entryDx=0;entryDy=0;fontSize=27;" parent="1" source="9BRF-aIqI05P_72CsstD-11" target="9BRF-aIqI05P_72CsstD-12" edge="1">
                    <mxGeometry relative="1" as="geometry"/>
                </mxCell>
                <mxCell id="9BRF-aIqI05P_72CsstD-11" value="Development of design solutions to meet the requirements of use" style="rectangle;whiteSpace=wrap;html=1;sketch=1;" parent="1" vertex="1">
                    <mxGeometry x="290" y="-60" width="180" height="80" as="geometry"/>
                </mxCell>
                <mxCell id="9BRF-aIqI05P_72CsstD-19" style="edgeStyle=orthogonalEdgeStyle;curved=1;rounded=0;orthogonalLoop=1;jettySize=auto;html=1;exitX=0.5;exitY=0;exitDx=0;exitDy=0;entryX=1;entryY=0.5;entryDx=0;entryDy=0;fontSize=27;" parent="1" source="9BRF-aIqI05P_72CsstD-12" target="9BRF-aIqI05P_72CsstD-13" edge="1">
                    <mxGeometry relative="1" as="geometry"/>
                </mxCell>
                <mxCell id="9BRF-aIqI05P_72CsstD-20" style="edgeStyle=orthogonalEdgeStyle;curved=1;rounded=0;orthogonalLoop=1;jettySize=auto;html=1;exitX=0.5;exitY=0;exitDx=0;exitDy=0;entryX=0;entryY=0.5;entryDx=0;entryDy=0;fontSize=27;dashed=1;" parent="1" source="9BRF-aIqI05P_72CsstD-12" target="9BRF-aIqI05P_72CsstD-9" edge="1">
                    <mxGeometry relative="1" as="geometry"/>
                </mxCell>
                <mxCell id="9BRF-aIqI05P_72CsstD-21" style="edgeStyle=orthogonalEdgeStyle;curved=1;rounded=0;orthogonalLoop=1;jettySize=auto;html=1;exitX=0.5;exitY=0;exitDx=0;exitDy=0;entryX=0.5;entryY=0;entryDx=0;entryDy=0;dashed=1;fontSize=27;" parent="1" source="9BRF-aIqI05P_72CsstD-12" target="9BRF-aIqI05P_72CsstD-10" edge="1">
                    <mxGeometry relative="1" as="geometry">
                        <Array as="points">
                            <mxPoint x="30" y="-240"/>
                            <mxPoint x="580" y="-240"/>
                        </Array>
                    </mxGeometry>
                </mxCell>
                <mxCell id="9BRF-aIqI05P_72CsstD-22" style="edgeStyle=orthogonalEdgeStyle;curved=1;rounded=0;orthogonalLoop=1;jettySize=auto;html=1;exitX=0.5;exitY=0;exitDx=0;exitDy=0;entryX=0.5;entryY=0;entryDx=0;entryDy=0;dashed=1;fontSize=27;" parent="1" source="9BRF-aIqI05P_72CsstD-12" target="9BRF-aIqI05P_72CsstD-11" edge="1">
                    <mxGeometry relative="1" as="geometry">
                        <Array as="points">
                            <mxPoint x="30" y="-230"/>
                            <mxPoint x="380" y="-230"/>
                        </Array>
                    </mxGeometry>
                </mxCell>
                <mxCell id="9BRF-aIqI05P_72CsstD-12" value="Evaluate the design solutions based on the requirements" style="rectangle;whiteSpace=wrap;html=1;sketch=1;" parent="1" vertex="1">
                    <mxGeometry x="-60" y="-190" width="180" height="80" as="geometry"/>
                </mxCell>
                <mxCell id="9BRF-aIqI05P_72CsstD-13" value="Design solution meets the requirements of use" style="ellipse;whiteSpace=wrap;html=1;sketch=1;" parent="1" vertex="1">
                    <mxGeometry x="-240" y="-340" width="200" height="80" as="geometry"/>
                </mxCell>
                <mxCell id="9BRF-aIqI05P_72CsstD-25" value="&lt;pre style=&quot;line-height: 0.3&quot;&gt;&lt;span style=&quot;font-size: 12px ; line-height: 0.9&quot;&gt;Iteration, as far as&lt;br&gt;Evaluation results&lt;br&gt;show the need for this&lt;/span&gt;&lt;br&gt;&lt;/pre&gt;" style="text;html=1;strokeColor=none;fillColor=default;align=left;verticalAlign=middle;whiteSpace=wrap;rounded=0;sketch=1;fontSize=27;" parent="1" vertex="1">
                    <mxGeometry x="70" y="-280" width="180" height="60" as="geometry"/>
                </mxCell>
                <mxCell id="9BRF-aIqI05P_72CsstD-57" style="edgeStyle=orthogonalEdgeStyle;curved=1;rounded=0;orthogonalLoop=1;jettySize=auto;html=1;exitX=0.5;exitY=0;exitDx=0;exitDy=0;entryX=0.5;entryY=0;entryDx=0;entryDy=0;fontSize=12;endArrow=block;endFill=1;dashed=1;" parent="1" source="9BRF-aIqI05P_72CsstD-26" target="9BRF-aIqI05P_72CsstD-1" edge="1">
                    <mxGeometry relative="1" as="geometry">
                        <Array as="points">
                            <mxPoint x="2760" y="-349.40999999999997"/>
                            <mxPoint x="2200" y="-349.40999999999997"/>
                        </Array>
                    </mxGeometry>
                </mxCell>
                <mxCell id="9BRF-aIqI05P_72CsstD-26" value="Release&lt;br&gt;on demand" style="ellipse;whiteSpace=wrap;html=1;sketch=1;" parent="1" vertex="1">
                    <mxGeometry x="2700" y="-279.40999999999997" width="120" height="80" as="geometry"/>
                </mxCell>
                <mxCell id="9BRF-aIqI05P_72CsstD-36" style="edgeStyle=orthogonalEdgeStyle;curved=1;rounded=0;orthogonalLoop=1;jettySize=auto;html=1;exitX=1;exitY=0.5;exitDx=0;exitDy=0;entryX=0;entryY=0.5;entryDx=0;entryDy=0;fontSize=12;endArrow=block;endFill=1;" parent="1" source="9BRF-aIqI05P_72CsstD-27" target="9BRF-aIqI05P_72CsstD-28" edge="1">
                    <mxGeometry relative="1" as="geometry"/>
                </mxCell>
                <mxCell id="9BRF-aIqI05P_72CsstD-27" value="Product Backlog" style="rounded=0;whiteSpace=wrap;html=1;sketch=1;fontSize=12;fillColor=default;" parent="1" vertex="1">
                    <mxGeometry x="830" y="-180" width="120" height="90" as="geometry"/>
                </mxCell>
                <mxCell id="9BRF-aIqI05P_72CsstD-37" style="edgeStyle=orthogonalEdgeStyle;curved=1;rounded=0;orthogonalLoop=1;jettySize=auto;html=1;exitX=1;exitY=0.5;exitDx=0;exitDy=0;entryX=0;entryY=0.5;entryDx=0;entryDy=0;fontSize=12;endArrow=block;endFill=1;" parent="1" source="9BRF-aIqI05P_72CsstD-28" target="9BRF-aIqI05P_72CsstD-29" edge="1">
                    <mxGeometry relative="1" as="geometry"/>
                </mxCell>
                <mxCell id="9BRF-aIqI05P_72CsstD-28" value="Sprint Backlog" style="rounded=0;whiteSpace=wrap;html=1;sketch=1;fontSize=12;fillColor=default;" parent="1" vertex="1">
                    <mxGeometry x="1010" y="-180" width="120" height="90" as="geometry"/>
                </mxCell>
                <mxCell id="9BRF-aIqI05P_72CsstD-44" style="edgeStyle=orthogonalEdgeStyle;curved=1;rounded=0;orthogonalLoop=1;jettySize=auto;html=1;exitX=1;exitY=0.5;exitDx=0;exitDy=0;entryX=0;entryY=0.5;entryDx=0;entryDy=0;fontSize=12;endArrow=block;endFill=1;" parent="1" source="9BRF-aIqI05P_72CsstD-29" target="9BRF-aIqI05P_72CsstD-30" edge="1">
                    <mxGeometry relative="1" as="geometry"/>
                </mxCell>
                <mxCell id="9BRF-aIqI05P_72CsstD-45" style="edgeStyle=orthogonalEdgeStyle;curved=1;rounded=0;orthogonalLoop=1;jettySize=auto;html=1;exitX=1;exitY=0.5;exitDx=0;exitDy=0;entryX=0;entryY=0.5;entryDx=0;entryDy=0;fontSize=12;endArrow=block;endFill=1;" parent="1" source="9BRF-aIqI05P_72CsstD-30" target="9BRF-aIqI05P_72CsstD-34" edge="1">
                    <mxGeometry relative="1" as="geometry"/>
                </mxCell>
                <mxCell id="9BRF-aIqI05P_72CsstD-30" value="Product Increment" style="rounded=0;whiteSpace=wrap;html=1;sketch=1;fontSize=12;fillColor=default;" parent="1" vertex="1">
                    <mxGeometry x="1510" y="-180" width="120" height="90" as="geometry"/>
                </mxCell>
                <mxCell id="9BRF-aIqI05P_72CsstD-31" value="Daily Scrum" style="ellipse;whiteSpace=wrap;html=1;sketch=1;fontSize=12;fillColor=default;" parent="1" vertex="1">
                    <mxGeometry x="1460" y="-290" width="120" height="90" as="geometry"/>
                </mxCell>
                <mxCell id="9BRF-aIqI05P_72CsstD-32" value="Backlog &lt;br&gt;Refinement" style="ellipse;whiteSpace=wrap;html=1;sketch=1;fontSize=12;fillColor=default;" parent="1" vertex="1">
                    <mxGeometry x="1298.15" y="-420" width="120" height="90" as="geometry"/>
                </mxCell>
                <mxCell id="9BRF-aIqI05P_72CsstD-33" value="Sprint Review" style="ellipse;whiteSpace=wrap;html=1;sketch=1;fontSize=12;fillColor=default;" parent="1" vertex="1">
                    <mxGeometry x="1140" y="-290" width="120" height="90" as="geometry"/>
                </mxCell>
                <mxCell id="9BRF-aIqI05P_72CsstD-34" value="Burn Down Diagramm" style="rounded=0;whiteSpace=wrap;html=1;sketch=1;fontSize=12;fillColor=default;" parent="1" vertex="1">
                    <mxGeometry x="1710" y="-180" width="120" height="90" as="geometry"/>
                </mxCell>
                <mxCell id="9BRF-aIqI05P_72CsstD-58" value="" style="verticalLabelPosition=bottom;verticalAlign=top;html=1;shape=mxgraph.basic.acute_triangle;dx=0.5;sketch=1;fontSize=12;fillColor=default;rotation=-210;" parent="1" vertex="1">
                    <mxGeometry x="1233.15" y="-200" width="100" height="70" as="geometry"/>
                </mxCell>
                <mxCell id="9BRF-aIqI05P_72CsstD-29" value="Sprint Planning" style="rounded=0;whiteSpace=wrap;html=1;sketch=1;fontSize=12;fillColor=default;" parent="1" vertex="1">
                    <mxGeometry x="1260" y="-180" width="120" height="90" as="geometry"/>
                </mxCell>
                <mxCell id="3" value="Client" style="ellipse;whiteSpace=wrap;html=1;sketch=1;fillColor=#6a00ff;fontColor=#ffffff;strokeColor=#3700CC;" vertex="1" parent="1">
                    <mxGeometry x="2150" y="40" width="120" height="60" as="geometry"/>
                </mxCell>
                <mxCell id="4" value="(Potential) User" style="ellipse;whiteSpace=wrap;html=1;sketch=1;fillColor=#6a00ff;fontColor=#ffffff;strokeColor=#3700CC;" vertex="1" parent="1">
                    <mxGeometry x="2290" y="40" width="120" height="60" as="geometry"/>
                </mxCell>
                <mxCell id="5" value="Project Manager" style="ellipse;whiteSpace=wrap;html=1;sketch=1;fillColor=#b1ddf0;strokeColor=#10739e;" vertex="1" parent="1">
                    <mxGeometry x="2020" y="120" width="120" height="60" as="geometry"/>
                </mxCell>
                <mxCell id="6" value="Product Manager" style="ellipse;whiteSpace=wrap;html=1;sketch=1;fillColor=#b1ddf0;strokeColor=#10739e;" vertex="1" parent="1">
                    <mxGeometry x="2150" y="120" width="120" height="60" as="geometry"/>
                </mxCell>
                <mxCell id="7" value="UI Designer" style="ellipse;whiteSpace=wrap;html=1;sketch=1;fillColor=#60a917;fontColor=#ffffff;strokeColor=#2D7600;" vertex="1" parent="1">
                    <mxGeometry x="2020" y="290" width="120" height="60" as="geometry"/>
                </mxCell>
                <mxCell id="8" value="UX Designer" style="ellipse;whiteSpace=wrap;html=1;sketch=1;fillColor=#e51400;fontColor=#ffffff;strokeColor=#B20000;" vertex="1" parent="1">
                    <mxGeometry x="2020" y="200" width="120" height="60" as="geometry"/>
                </mxCell>
                <mxCell id="9" value="Frontend Developer" style="ellipse;whiteSpace=wrap;html=1;sketch=1;fillColor=#60a917;fontColor=#ffffff;strokeColor=#2D7600;" vertex="1" parent="1">
                    <mxGeometry x="2150" y="290" width="120" height="60" as="geometry"/>
                </mxCell>
                <mxCell id="10" value="Backend Developer" style="ellipse;whiteSpace=wrap;html=1;sketch=1;fillColor=#e3c800;fontColor=#F0F0F0;strokeColor=#B09500;" vertex="1" parent="1">
                    <mxGeometry x="2150" y="380" width="120" height="60" as="geometry"/>
                </mxCell>
                <mxCell id="11" value="Software Architect" style="ellipse;whiteSpace=wrap;html=1;sketch=1;fillColor=#e51400;fontColor=#ffffff;strokeColor=#B20000;" vertex="1" parent="1">
                    <mxGeometry x="2150" y="200" width="120" height="60" as="geometry"/>
                </mxCell>
                <mxCell id="12" value="Requirement Engineer" style="ellipse;whiteSpace=wrap;html=1;sketch=1;fillColor=#e51400;fontColor=#ffffff;strokeColor=#B20000;" vertex="1" parent="1">
                    <mxGeometry x="2290" y="200" width="120" height="60" as="geometry"/>
                </mxCell>
                <mxCell id="13" value="Product Owner" style="ellipse;whiteSpace=wrap;html=1;sketch=1;fillColor=#6a00ff;fontColor=#ffffff;strokeColor=#3700CC;" vertex="1" parent="1">
                    <mxGeometry x="2020" y="40" width="120" height="60" as="geometry"/>
                </mxCell>
                <mxCell id="14" value="Requirement Manager" style="ellipse;whiteSpace=wrap;html=1;sketch=1;fillColor=#b1ddf0;strokeColor=#10739e;" vertex="1" parent="1">
                    <mxGeometry x="2290" y="120" width="120" height="60" as="geometry"/>
                </mxCell>
                <mxCell id="15" value="Process Master" style="ellipse;whiteSpace=wrap;html=1;sketch=1;fillColor=#a20025;fontColor=#ffffff;strokeColor=#6F0000;" vertex="1" parent="1">
                    <mxGeometry x="2020" y="-40" width="120" height="60" as="geometry"/>
                </mxCell>
            </root>
        </mxGraphModel>
    </diagram>
</mxfile>